<?xml version="1.0" encoding="UTF-8" standalone="no"?>
<svg
   xmlns:svg="http://www.w3.org/2000/svg"
   xmlns="http://www.w3.org/2000/svg"
   viewBox="0 0 564.62665 220.41333"
   height="144"
   width="116"
   xml:space="preserve"
   id="svg2"
   version="1.1"><g
     transform="matrix(5,0,0,-4.6,0,530)"><g
       transform="scale(0.1)"><path
         style="fill:#000000;stroke:none"
         d="m 145.43,266.93 60,60 h 930 v -60 h -990" /><path
         style="fill:#000000;stroke:none"
         d="m 0,153.949 60,60 h 1075 v -60 H 0" /><path
         style="fill:#000000;stroke:none"
         d="m 304.223,379.91 v 855.56 c 0,230.67 187,417.66 417.664,417.66 230.668,0 417.663,-186.99 417.663,-417.66 V 379.91 Z m 748.187,80 v 738.7 c 0,112.92 -91.547,204.46 -204.465,204.46 -112.918,0 -204.461,-91.54 -204.461,-204.46 v -738.7 z m -473.32,0.207 v 736.493 c 0,148.79 120.621,269.41 269.41,269.41 47.738,0 81.008,-3.4 119.895,-25.18 -46.434,31.37 -102.411,49.69 -162.665,49.69 -160.675,0 -290.933,-130.26 -290.933,-290.93 V 423.457 Z m -124.879,-0.246 v 785.299 c 0,169.51 137.418,306.93 306.926,306.93 54.39,0 93.261,-4.42 136.59,-28.69 -51.739,34.96 -114.11,55.37 -181.25,55.37 -179.039,0 -324.18,-145.15 -324.18,-324.18 V 423.52 Z m 189.273,0.039 v 738.7 c 0,112.92 91.543,204.46 204.461,204.46 112.918,0 204.465,-91.54 204.465,-204.46 0,112.92 -91.547,204.46 -204.465,204.46 -112.918,0 -204.461,-91.54 -204.461,-204.46 v -738.7" /></g></g></svg>